<?xml version="1.0" standalone="no"?>
<!DOCTYPE svg PUBLIC "-//W3C//DTD SVG 1.1//EN" "http://www.w3.org/Graphics/SVG/1.1/DTD/svg11.dtd" >
<!--
2013-9-30: Created.
-->
<svg>
<metadata>
Created by iconfont
</metadata>
<defs>

<font id="iconfont" horiz-adv-x="1024" >
  <font-face
    font-family="iconfont"
    font-weight="500"
    font-stretch="normal"
    units-per-em="1024"
    ascent="896"
    descent="-128"
  />
    <missing-glyph />
    
    <glyph glyph-name="last_icon" unicode="&#58904;" d="M0 384c0-282.308923 229.691077-512 512-512s512 229.691077 512 512S794.308923 896 512 896 0 666.308923 0 384z m61.361231 0C61.361231 632.516923 263.522462 834.638769 512 834.638769c248.516923 0 450.638769-202.161231 450.638769-450.638769S760.477538-66.638769 512-66.638769 61.361231 135.522462 61.361231 384z m188.061538 21.740308a30.680615 30.680615 0 0 1 0-43.401846l240.836923-240.915693a30.601846 30.601846 0 0 1 43.401846 0 30.72 30.72 0 0 1 0 43.401846L345.166769 353.28h407.709539a30.72 30.72 0 0 1 0 61.400615H345.166769l188.494769 188.455385a30.72 30.72 0 0 1-43.401846 43.401846l-240.836923-240.836923z"  horiz-adv-x="1024" />

    
    <glyph glyph-name="next" unicode="&#58910;" d="M1024 384c0-282.308923-229.691077-512-512-512S0 101.691077 0 384 229.691077 896 512 896s512-229.691077 512-512z m-61.361231 0c0 248.516923-202.161231 450.638769-450.638769 450.638769C263.483077 834.638769 61.361231 632.477538 61.361231 384S263.522462-66.638769 512-66.638769 962.638769 135.522462 962.638769 384z m-188.061538 21.740308a30.680615 30.680615 0 0 0 0-43.401846l-240.836923-240.915693a30.601846 30.601846 0 0 0-43.401846 0 30.72 30.72 0 0 0 0 43.401846l188.494769 188.49477H271.123692a30.72 30.72 0 0 0 0 61.400615h407.709539L490.338462 603.175385a30.72 30.72 0 0 0 43.401846 43.401846l240.836923-240.836923z"  horiz-adv-x="1024" />

    
    <glyph glyph-name="home_home_icon" unicode="&#58886;" d="M568.508082 874.851265a80.415347 80.415347 0 0 1-108.063347 0L23.468408 459.943184a40.312163 40.312163 0 0 1 54.000327-59.872653l6.938122 6.582857v-433.026612A80.603429 80.603429 0 0 1 165.031184-107.102041h234.600489V135.606857a56.779755 56.779755 0 0 0 56.800654 56.842449h110.38302a56.779755 56.779755 0 0 0 56.800653-56.842449V-107.102041h240.180245a80.603429 80.603429 0 0 1 80.645224 80.728817V401.345306c17.909551-16.195918 43.321469-14.983837 58.221715 1.630041a40.333061 40.333061 0 0 1-2.925715 56.946939L568.508082 874.830367z"  horiz-adv-x="1024" />

    
    <glyph glyph-name="home_sousuo_icon2" unicode="&#58888;" d="M968.655238 58.953143l-0.438857 0.438857-163.644952 163.498667a378.489905 378.489905 0 1 1-39.009524-39.009524l160.572952-160.377905h-0.048762l4.096-4.047238a27.550476 27.550476 0 0 1 38.473143 39.497143zM193.828571 470.308571a324.266667 324.266667 0 1 0 648.582096 0 324.266667 324.266667 0 0 0-648.582096 0z"  horiz-adv-x="1024" />

    
    <glyph glyph-name="home_kuaijie2_icon" unicode="&#58889;" d="M769.128107 432.493714a256.853333 256.853333 0 0 1 85.577143 287.256381C818.572678 823.808 719.902964 893.659429 609.018392 893.659429S399.464107 823.808 363.331535 719.750095c-36.132571-104.082286-1.755429-219.428571 85.577143-287.280762C283.435154 365.153524 175.525059 205.019429 175.915154 27.526095v-87.283809a43.398095 43.398095 0 0 1 43.300572-43.471238h779.605333a43.398095 43.398095 0 0 1 43.300571 43.471238v87.283809c0.438857 177.542095-107.52 337.65181-272.993523 404.967619z m259.998476 15.725715a218.819048 218.819048 0 0 1 56.32 146.383238c0.731429 119.53981-96.134095 217.136762-216.551619 218.160762-3.584 0-6.948571-0.902095-10.48381-1.072762a305.005714 305.005714 0 0 0 42.203429-90.575238h-0.438857c33.03619-98.596571 10.556952-207.238095-58.928762-284.91581 19.748571-8.923429 243.809524-102.64381 243.809524-408.673524h87.04a43.641905 43.641905 0 0 1 43.300571 43.446857v67.608381c0.78019 129.584762-70.972952 248.880762-186.270476 309.638096z m-652.726857-12.068572A289.304381 289.304381 0 0 0 317.422202 721.091048c8.97219 32.280381 23.210667 62.902857 42.179048 90.599619-3.364571 0-6.729143 1.072762-10.435048 1.072762-120.441905-0.999619-217.307429-98.596571-216.551619-218.160762 0-54.00381 20.041143-106.105905 56.32-146.383238C73.612678 387.462095 1.835154 268.166095 2.664107 138.581333v-67.462095a43.398095 43.398095 0 0 1 43.324952-43.471238H132.614583c-0.048762 305.90781 224.060952 399.60381 243.809524 408.502857z"  horiz-adv-x="1243" />

    
    <glyph glyph-name="home_organ_icon2" unicode="&#58890;" d="M39.053964-126.603636a41.565091 41.565091 0 0 0-27.904 11.124363A34.792727 34.792727 0 0 0 0.002327-89.6v90.670545c-0.302545 89.227636 28.346182 176.546909 82.292364 250.88 50.967273 71.121455 123.764364 126.859636 209.221818 160.232728l13.963636 5.12-11.86909 8.936727c-66.420364 51.083636-104.308364 126.766545-103.214546 206.196364-2.071273 68.491636 26.042182 134.865455 77.963636 184.226909 51.944727 49.338182 123.345455 77.498182 198.213819 78.149818 75.310545 0.046545 147.479273-27.834182 200.005818-77.265455 52.549818-49.408 81.012364-116.177455 78.941091-185.111272 0.418909-79.825455-38.516364-155.601455-106.007273-206.196364l-11.869091-8.936727 13.963636-5.12c85.504-33.326545 158.277818-89.088 209.221819-160.232728 53.969455-74.333091 82.618182-161.652364 82.292363-250.88v-90.018909c0.186182-9.658182-3.816727-18.990545-11.147636-25.925818-7.330909-6.935273-17.361455-10.938182-27.927273-11.101091l-854.993454-0.651636z m961.722181 135.354181c0 24.901818 28.578909 268.101818-184.110545 376.645819-28.602182 18.525091-36.980364 21.061818-36.980364 36.398545 0.418909 15.173818 10.938182 28.602182 26.530909 33.838546 149.224727 152.576-28.625455 333.242182-55.808 344.738909v3.816727c127.394909-3.816727 227.933091-100.398545 225.95491-217.041455-0.884364-53.899636-23.202909-105.658182-62.766546-145.570909l-6.981818-8.308363 9.774545-5.096728c124.416-62.603636 201.076364-182.853818 199.447273-312.808727v-69.585454c0.186182-9.658182-3.816727-18.990545-11.147636-25.925819-7.307636-6.935273-17.361455-10.938182-27.904-11.101091h-76.008728z"  horiz-adv-x="1117" />

    
    <glyph glyph-name="rili_next_icon" unicode="&#58892;" d="M29.85984 700.757333l584.021333-681.130666c17.408-21.162667 42.666667-33.28 68.949334-33.28a89.429333 89.429333 0 0 1 69.12 33.28l583.850666 680.96a121.173333 121.173333 0 0 1 22.528 120.490666 109.568 109.568 0 0 1-91.477333 74.069334H99.321173a109.226667 109.226667 0 0 1-92.16-73.898667 121.173333 121.173333 0 0 1 22.528-120.490667z"  horiz-adv-x="1365" />

    
    <glyph glyph-name="home_working_icon3" unicode="&#58893;" d="M844.577391-52.535652h-529.808695c-10.50713 0-18.365217-2.671304-26.245566-10.685218-7.858087-8.036174-10.48487-16.072348-10.484869-26.779826 0-10.707478 5.231304-18.743652 10.484869-26.779826 7.880348-8.013913 15.738435-10.707478 26.223305-10.707478h529.853217c10.462609 0 18.365217 2.671304 26.223305 10.707478 7.858087 8.013913 10.48487 16.072348 10.484869 26.779826 0 10.685217-5.231304 18.743652-10.484869 26.757566-7.858087 5.36487-15.738435 10.707478-26.223305 10.707478zM1070.191304 895.22087c47.193043 0 83.923478-37.465043 86.550261-85.659827V148.257391c0-45.523478-39.334957-83.010783-83.923478-83.010782H83.923478c-47.193043 0-83.923478 37.487304-83.923478 83.010782V809.561043C0 857.755826 36.730435 895.22087 83.923478 895.22087h986.245565z m-209.830956-270.402783l-220.338087-192.77913-243.934609 139.241739-186.234435-198.121739c-7.858087-8.013913-10.462609-16.072348-10.462608-26.779827 0-10.685217 5.231304-18.721391 13.089391-26.757565 15.738435-13.401043 39.334957-13.401043 52.46887 2.671305l146.877217 155.291826 241.307826-136.548174 262.299826 230.244174c7.858087 8.013913 13.133913 16.072348 13.133913 26.779826 0 10.685217-2.649043 18.743652-10.50713 26.757565-15.738435 13.401043-41.961739 13.401043-57.700174 0z"  horiz-adv-x="1157" />

    
    <glyph glyph-name="shuaxin_icon" unicode="&#58895;" d="M1025.736411 212.163048a38.863238 38.863238 0 0 0-10.971428 1.609142 40.17981 40.17981 0 0 0-26.624 49.590858c11.215238 39.107048 16.822857 79.969524 16.822857 121.027047 0 237.909333-189.049905 431.34781-421.546667 431.34781-114.102857 0-220.891429-45.884952-300.81219-129.121524a38.521905 38.521905 0 0 0-55.296-0.536381 40.667429 40.667429 0 0 0-0.487619 56.56381A497.517714 497.517714 0 0 0 386.71165 854.552381a485.717333 485.717333 0 0 0 196.803047 41.106286c67.388952 0 132.87619-13.458286 194.56-40.131048a497.859048 497.859048 0 0 0 158.817524-109.568c45.884952-46.957714 81.871238-101.668571 107.032381-162.474667 26.087619-63.146667 39.253333-130.096762 39.253333-199.094857 0-48.810667-6.631619-96.987429-19.992381-143.408762a39.350857 39.350857 0 0 0-37.546666-28.818285z m-444.269714-338.505143a487.082667 487.082667 0 0 0-194.56 40.179809 497.712762 497.712762 0 0 0-158.817524 109.519238 510.780952 510.780952 0 0 0-107.032381 162.523429 518.534095 518.534095 0 0 0-39.253333 199.046095c0 56.56381 8.97219 112.347429 26.721524 165.449143a39.009524 39.009524 0 0 0 49.688381 24.966095c20.48-7.216762 31.305143-29.891048 24.380952-50.858666a438.51581 438.51581 0 0 1-22.576762-139.556572c0-237.860571 189.098667-431.34781 421.595429-431.347809 114.102857 0 220.891429 45.884952 300.81219 129.170285a38.521905 38.521905 0 0 0 55.296 0.487619c15.36-15.457524 15.60381-40.813714 0.487619-56.563809a497.810286 497.810286 0 0 0-159.939047-111.908572 488.496762 488.496762 0 0 0-196.803048-41.106285zM1009.157364 141.019429a32.426667 32.426667 0 0 0-26.819048 14.433523 33.889524 33.889524 0 0 0 8.289524 46.421334l127.171048 89.673143a32.182857 32.182857 0 0 0 45.348571-8.533334 33.889524 33.889524 0 0 0-8.289524-46.421333l-127.171047-89.721905a33.060571 33.060571 0 0 0-18.529524-5.851428zM1005.98784 141.702095a32.426667 32.426667 0 0 0-26.819048 14.433524l-87.625142 130.048a33.889524 33.889524 0 0 0 8.338285 46.470095 32.182857 32.182857 0 0 0 45.348572-8.533333l87.673904-130.096762a33.889524 33.889524 0 0 0-8.338285-46.421333 32.036571 32.036571 0 0 0-18.529524-5.851429zM32.651459 479.914667a32.426667 32.426667 0 0 0-26.867809 14.433523 33.889524 33.889524 0 0 0 8.338285 46.421334l127.122286 89.673143a32.182857 32.182857 0 0 0 45.348571-8.533334 33.889524 33.889524 0 0 0-8.289523-46.470095L51.132221 485.814857a32.377905 32.377905 0 0 0-18.529524-5.851428zM250.422126 438.808381a32.426667 32.426667 0 0 0-26.86781 14.433524L135.929173 583.338667a33.889524 33.889524 0 0 0 8.289524 46.421333 32.182857 32.182857 0 0 0 45.397333-8.533333l87.625143-130.096762a33.889524 33.889524 0 0 0-8.289523-46.421334 33.109333 33.109333 0 0 0-18.529524-5.851428z"  horiz-adv-x="1170" />

    
    <glyph glyph-name="xiazai_icon" unicode="&#58896;" d="M1035.751619 272.335238c-22.186667 0-36.961524-16.237714-36.961524-40.618667v-138.191238c0-64.999619-29.598476-121.904762-110.982095-121.904762H177.493333c-88.746667-8.094476-110.982095 56.905143-110.982095 121.904762v138.191238c0 24.380952-14.774857 40.618667-36.961524 40.618667S0 256.097524 0 231.716571v-186.953142c0-89.380571 66.56-162.523429 147.943619-162.523429h776.874667c81.383619 0 147.943619 73.142857 147.943619 162.523429v186.953142c-7.41181 24.380952-22.186667 40.618667-37.010286 40.618667zM566.369524 140.04419l202.556952 204.995048a39.497143 39.497143 0 0 1 0 55.198476 35.05981 35.05981 0 0 1-52.516571 0l-142.531048-134.046476V818.078476c0 23.649524-14.969905 39.399619-37.497905 39.399619s-37.546667-15.750095-37.546666-39.399619v-551.887238l-142.482286 134.046476c-15.018667 15.750095-45.007238 15.750095-52.516571 0a39.497143 39.497143 0 0 1 0-55.198476l202.556952-204.995048s29.988571-31.50019 59.977143 0z"  horiz-adv-x="1072" />

    
    <glyph glyph-name="home_set_icon" unicode="&#58897;" d="M933.632 383.850667c0 59.669333 37.44 110.570667 90.090667 131.050666a525.482667 525.482667 0 0 1-57.344 138.624c-51.477333-22.805333-114.069333-13.44-156.181334 28.672-42.112 42.112-51.477333 104.704-28.672 156.181334A525.44 525.44 0 0 1 642.901333 895.722667c-20.48-52.650667-70.784-90.090667-131.050666-90.090667-59.669333 0-110.549333 37.44-131.029334 90.090667a525.44 525.44 0 0 1-138.645333-57.344c22.826667-51.477333 13.461333-114.069333-28.650667-156.181334-42.133333-42.112-104.725333-51.477333-156.202666-28.672A506.56 506.56 0 0 1 0 514.901333c52.650667-20.48 90.090667-70.784 90.090667-131.050666 0-59.669333-37.44-110.549333-90.090667-131.029334a525.44 525.44 0 0 1 57.322667-138.645333c51.477333 22.826667 114.069333 13.44 156.202666-28.650667 42.112-42.133333 51.477333-104.725333 28.650667-156.202666A525.482667 525.482667 0 0 1 380.821333-128c20.48 52.650667 70.784 90.090667 131.029334 90.090667 59.669333 0 110.570667-37.44 131.050666-90.090667a525.482667 525.482667 0 0 1 138.624 57.322667c-22.826667 51.477333-13.44 114.069333 28.672 156.202666 42.112 42.112 104.704 51.477333 156.181334 28.650667a506.730667 506.730667 0 0 1 57.344 138.645333c-52.650667 20.48-90.090667 71.36-90.090667 131.029334z m-421.76-140.373334a140.416 140.416 0 0 0-140.416 140.373334c0 77.226667 63.189333 140.394667 140.394667 140.394666 77.226667 0 140.394667-63.168 140.394666-140.373333a140.437333 140.437333 0 0 0-140.373333-140.416z"  horiz-adv-x="1024" />

    
    <glyph glyph-name="home_working_icon2" unicode="&#58885;" d="M844.577391-52.535652h-529.808695c-10.50713 0-18.365217-2.671304-26.245566-10.685218-7.858087-8.036174-10.48487-16.072348-10.484869-26.779826 0-10.707478 5.231304-18.743652 10.484869-26.779826 7.880348-8.013913 15.738435-10.707478 26.223305-10.707478h529.853217c10.462609 0 18.365217 2.671304 26.223305 10.707478 7.858087 8.013913 10.48487 16.072348 10.484869 26.779826 0 10.685217-5.231304 18.743652-10.484869 26.757566-7.858087 5.36487-15.738435 10.707478-26.223305 10.707478zM1070.191304 895.22087c47.193043 0 83.923478-37.465043 86.550261-85.659827V148.257391c0-45.523478-39.334957-83.010783-83.923478-83.010782H83.923478c-47.193043 0-83.923478 37.487304-83.923478 83.010782V809.561043C0 857.755826 36.730435 895.22087 83.923478 895.22087h986.245565z m-209.830956-270.402783l-220.338087-192.77913-243.934609 139.241739-186.234435-198.121739c-7.858087-8.013913-10.462609-16.072348-10.462608-26.779827 0-10.685217 5.231304-18.721391 13.089391-26.757565 15.738435-13.401043 39.334957-13.401043 52.46887 2.671305l146.877217 155.291826 241.307826-136.548174 262.299826 230.244174c7.858087 8.013913 13.133913 16.072348 13.133913 26.779826 0 10.685217-2.649043 18.743652-10.50713 26.757565-15.738435 13.401043-41.961739 13.401043-57.700174 0z"  horiz-adv-x="1157" />

    
    <glyph glyph-name="delete_icon" unicode="&#58883;" d="M334.734222 86.528a32.142222 32.142222 0 0 1 32.142222 32.142222v404.48a32.142222 32.142222 0 0 1-64.284444 0v-404.48c0.682667-17.635556 15.132444-32.142222 32.142222-32.142222z m354.360889 0a32.142222 32.142222 0 0 1 32.142222 32.142222v404.48a32.142222 32.142222 0 0 1-64.284444 0v-404.48c0-17.692444 14.392889-32.085333 32.142222-32.142222z m-177.152 0a32.142222 32.142222 0 0 1 32.142222 32.142222v404.48a32.142222 32.142222 0 0 1-64.284444 0v-404.48c0-17.692444 14.392889-32.085333 32.142222-32.142222zM991.630222 768.910222h-245.304889v43.918222c0 45.340444-36.977778 82.261333-82.318222 82.261334H360.618667c-45.340444 0-82.261333-36.920889-82.261334-82.261334v-43.918222H32.199111a32.142222 32.142222 0 0 1 0-64.284444h119.125333v-674.929778a133.404444 133.404444 0 0 1 133.290667-133.233778h454.656a133.404444 133.404444 0 0 1 133.233778 133.233778V705.422222h119.125333a32.199111 32.199111 0 0 1 32.142222 32.142222 31.402667 31.402667 0 0 1-32.142222 31.288889zM341.788444 812.828444a18.659556 18.659556 0 0 0 18.830223 18.773334h303.388444a18.659556 18.659556 0 0 0 18.830222-18.773334v-43.918222H341.788444v43.918222z m466.488889-783.132444c0-38.058667-31.004444-69.006222-69.006222-69.006222H284.615111a69.063111 69.063111 0 0 0-69.006222 69.006222V705.422222h592.611555v-675.726222z"  horiz-adv-x="1024" />

    
    <glyph glyph-name="calendar_icon" unicode="&#58882;" d="M274.8416 620.288h78.7456V895.3856H274.8416zM669.7984 620.288h78.6944V895.3856h-78.6944zM196.8128 227.2768h157.44v78.592H196.8128zM432.9984 227.2768h393.5744v78.592H432.9984zM196.8128 70.0416h157.44v78.592H196.8128zM432.9984 70.0416h393.5744v78.592H432.9984zM196.8128 383.1808h157.44V461.7728H196.8128zM432.9984 383.1808h393.5744V461.7728H432.9984zM393.6256 731.648H629.76V810.24H393.6256zM965.3248 810.24h-178.1248V731.648h157.44v-779.52H78.7456V731.648h157.44V810.24h-178.176A58.0608 58.0608 0 0 1 0 752.2816v-820.7872a57.9072 57.9072 0 0 1 58.0608-57.9584h907.264c32.0512 0 58.0608 25.9584 58.0608 57.9584V752.2816a57.9584 57.9584 0 0 1-58.0608 57.9584z"  horiz-adv-x="1024" />

    
    <glyph glyph-name="home_list_icon" unicode="&#58881;" d="M1124.522667 749.824L70.144 749.141333C31.402667 749.226667 0 781.909333 0 822.272S31.402667 895.317333 70.144 895.317333L1124.522667 896c38.741333 0 70.144-32.682667 70.144-73.130667 0-40.362667-31.402667-73.045333-70.144-73.045333z m0-438.613333L70.144 310.613333C31.402667 310.613333 0 343.296 0 383.658667s31.402667 73.130667 70.144 73.130666l1054.378667 0.682667c38.741333 0 70.144-32.768 70.144-73.130667s-31.402667-73.130667-70.144-73.130666z m0-438.528L70.144-128C31.402667-128 0-95.232 0-54.954667c0 40.448 31.402667 73.130667 70.144 73.130667l1054.378667 0.682667c38.741333 0 70.144-32.682667 70.144-73.045334 0-40.448-31.402667-73.130667-70.144-73.130666z"  horiz-adv-x="1194" />

    
    <glyph glyph-name="arrow-up" unicode="&#59203;" d="M500.8 434.090667L267.306667 200.704l-45.226667 45.269333 278.741333 278.613334L779.306667 245.973333l-45.248-45.226666z"  horiz-adv-x="1024" />

    
    <glyph glyph-name="arrow-down" unicode="&#59314;" d="M500.8 291.221L267.307 524.608l-45.227-45.27 278.741-278.613L779.307 479.34l-45.248 45.248z"  horiz-adv-x="1024" />

    
    <glyph glyph-name="down_icon1" unicode="&#58898;" d="M685.217684 243.226947L352.741053 573.709474c-21.827368 21.719579-54.433684-11.048421-32.552421-32.768l332.045473-330.105263-221.022316 0.377263a23.120842 23.120842 0 0 1-0.107789-46.18779l276.372211-0.431158h0.808421c12.773053 0 23.174737 10.293895 23.174736 23.066948V465.381053a23.120842 23.120842 0 0 1-46.241684 0v-222.100211z m-161.68421-355.813052a485.052632 485.052632 0 1 0 0 970.105263 485.052632 485.052632 0 0 0 0-970.105263z"  horiz-adv-x="1024" />

    
    <glyph glyph-name="home_home_icon1" unicode="&#58899;" d="M1013.744175 368.407273a34.257455 34.257455 0 0 0-48.500364 0l-0.139636 0.186182-437.061819 437.666909a22.807273 22.807273 0 0 1-32.302545 0l-437.061818-437.713455a34.257455 34.257455 0 1 0-48.500364 48.546909l461.265455 461.963637c22.341818 22.341818 58.507636 22.341818 80.849454 0l461.265455-461.963637 0.186182-0.139636a34.350545 34.350545 0 0 0 0-48.546909z m-82.571637 253.300363a34.304 34.304 0 0 0-34.257454 34.304V770.420364h-114.269091a34.304 34.304 0 0 0 0 68.654545h148.526545c18.944 0 34.304-15.36 34.304-34.304v-148.759273c0-18.944-15.36-34.304-34.304-34.304zM133.709265 350.254545c18.804364 0 34.117818-15.220364 34.257455-34.024727v-351.278545c0-12.613818 10.24-22.853818 22.853818-22.853818h156.532364v268.846545c0 31.604364 25.6 57.250909 57.111273 57.250909h214.807272c31.557818 0 57.111273-25.646545 57.111273-57.250909v-268.846545h156.532364c12.660364 0 22.853818 10.24 22.853818 22.853818v346.298182a34.350545 34.350545 0 0 0 49.477818 35.793454c11.496727-5.864727 18.711273-17.687273 18.711273-30.533818v-0.279273h0.372363v-385.582545c0-31.604364-25.6-57.250909-57.111272-57.250909h-259.351273v303.709091a22.853818 22.853818 0 0 1-22.853818 22.900363H438.768175c-12.613818 0-22.853818-10.24-22.853819-22.900363v-303.662546H156.563084c-31.557818 0-57.157818 25.6-57.157819 57.204364v385.582545a34.304 34.304 0 0 0 34.304 33.978182z"  horiz-adv-x="1024" />

    
    <glyph glyph-name="home_people_icon1" unicode="&#58900;" d="M523.936 384m-512 0a512 512 0 1 1 1024 0 512 512 0 1 1-1024 0ZM466.944 409.824c-60.768 0-110.016 48-110.016 107.264 0 59.2 49.28 107.232 110.016 107.232 60.768 0 110.016-48 110.016-107.232s-49.28-107.264-110.016-107.264z m0-23.84c101.248 0 183.36-80.032 183.36-178.752v-47.68a12.064 12.064 0 0 0-12.256-11.904H295.808a12.064 12.064 0 0 0-12.192 11.904v47.68c0 98.72 82.08 178.752 183.328 178.752z m260.352 88.192a18.656 18.656 0 0 0 25.664 3.584 17.6 17.6 0 0 0 3.648-25.024l-73.312-95.36a18.624 18.624 0 0 0-27.648-1.92l-48.896 47.68a17.568 17.568 0 0 0 0 25.28 18.656 18.656 0 0 0 25.92 0l33.952-33.088 60.672 78.848z"  horiz-adv-x="1056" />

    
    <glyph glyph-name="home_icon1" unicode="&#58901;" d="M989.184 526.37696L582.0416 870.31808a103.79264 103.79264 0 0 1-135.12704 0L34.52928 526.37696C25.76384 519.33184 20.48 510.5664 20.48 498.2784a35.2256 35.2256 0 0 1 35.10272-35.10272 33.34144 33.34144 0 0 1 22.81472 8.76544l12.288 10.56768v-391.3728c0-78.97088 59.67872-143.89248 135.12704-143.89248H797.9008c73.728 0 135.168 64.9216 135.168 143.89248v391.3728l10.52672-8.8064a38.05184 38.05184 0 0 1 24.576-8.76544 35.2256 35.2256 0 0 1 35.06176 35.10272c0 8.76544-5.24288 19.29216-14.00832 26.33728zM441.71264 17.408v245.67808a35.2256 35.2256 0 0 0 35.10272 35.10272h70.20544a35.2256 35.2256 0 0 0 35.10272-35.10272v-245.67808h-140.41088z m421.19168 73.728c0-40.38656-29.85984-73.728-66.68288-73.728h-143.93344v245.67808a105.59488 105.59488 0 0 1-105.2672 105.2672H476.7744a105.59488 105.59488 0 0 1-105.30816-105.2672v-245.67808H227.57376c-36.864 0-66.68288 33.34144-66.68288 73.728V540.38528l329.89184 275.49696c12.288 10.52672 31.62112 10.52672 45.62944 0l326.4512-273.77664v-450.9696z"  horiz-adv-x="1024" />

    
    <glyph glyph-name="home_cpu_icon1" unicode="&#58902;" d="M523.936 384m-512 0a512 512 0 1 1 1024 0 512 512 0 1 1-1024 0ZM601.408 244.128v28.352c0 18.816 15.232 34.048 34.048 34.048h90.784c18.816 0 34.048-15.232 34.048-34.048v-90.784c0-18.816-15.232-34.048-34.048-34.048h-90.784a34.048 34.048 0 0 0-34.048 34.048v28.384h-83.744l16.32-16.352a17.024 17.024 0 0 0-24.064-24.064l-45.44 45.376a17.024 17.024 0 0 0 0 24.096l45.44 45.376a17.024 17.024 0 0 0 24.064-24.064l-16.32-16.32h83.744z m62.4 221.312h-28.352a34.048 34.048 0 0 0-34.048 34.048V590.272c0 18.816 15.232 34.048 34.048 34.048h90.784c18.816 0 34.048-15.232 34.048-34.048v-90.784c0-18.816-15.232-34.048-34.048-34.048h-28.384v-83.744l16.32 16.32a17.024 17.024 0 0 0 24.096-24.064l-45.376-45.408a16.96 16.96 0 0 0-24.096 0l-45.408 45.408a17.024 17.024 0 0 0 24.096 24.064l16.32-16.32v83.744z m-221.312 62.4v-28.352c0-18.816-15.232-34.048-34.048-34.048H317.664a34.048 34.048 0 0 0-34.048 34.048V590.272c0 18.816 15.232 34.048 34.048 34.048h90.784c18.816 0 34.048-15.232 34.048-34.048v-28.352h83.744l-16.32 16.32a17.024 17.024 0 0 0 24.064 24.096l45.408-45.44a17.024 17.024 0 0 0 0-24.064l-45.408-45.376a17.024 17.024 0 0 0-24.064 24.064l16.32 16.32h-83.744z m-62.4-221.312h28.352c18.816 0 34.048-15.232 34.048-34.048v-90.784c0-18.816-15.232-34.048-34.048-34.048H317.664a34.048 34.048 0 0 0-34.048 34.048v90.784c0 18.816 15.232 34.048 34.048 34.048h28.352v83.744l-16.32-16.32a17.024 17.024 0 0 0-24.096 24.064l45.44 45.408a17.024 17.024 0 0 0 24.032 0l45.44-45.408a17.024 17.024 0 0 0-24.096-24.064l-16.32 16.32v-83.744z"  horiz-adv-x="1056" />

    
    <glyph glyph-name="home_sousuo_icon1" unicode="&#58903;" d="M968.655238 58.953143l-0.438857 0.438857-163.644952 163.498667a378.489905 378.489905 0 1 1-39.009524-39.009524l160.572952-160.377905h-0.048762l4.096-4.047238a27.550476 27.550476 0 0 1 38.473143 39.497143zM193.828571 470.308571a324.266667 324.266667 0 1 0 648.582096 0 324.266667 324.266667 0 0 0-648.582096 0z"  horiz-adv-x="1024" />

    
    <glyph glyph-name="home_visitor2_icon1" unicode="&#58905;" d="M512 384m-512 0a512 512 0 1 1 1024 0 512 512 0 1 1-1024 0ZM559.36 508.16a69.76 69.76 0 0 0 69.824 68.48 69.76 69.76 0 0 0 69.92-69.568 69.76 69.76 0 0 0-99.456-62.976 86.176 86.176 0 0 1-40.32 64.032z m-45.824-148.416a69.76 69.76 0 0 0-69.92 69.568c0 38.432 31.296 69.6 69.92 69.6a69.76 69.76 0 0 0 69.92-69.6 69.76 69.76 0 0 0-69.92-69.568z m29.664-4.736a89.376 89.376 0 0 0 89.472-89.12v-71.872l-5.152-2.688c-2.368-1.184-40.48-19.84-106.272-19.84-33.696 0-74.624 4.864-121.728 19.52l-5.184 1.568v73.312a89.408 89.408 0 0 0 89.536 89.12h59.328z m115.648 71.84a89.408 89.408 0 0 0 89.504-89.088v-72.256h-0.48l-4.672-2.336c-2.24-1.12-35.712-17.504-93.824-19.616v22.24a105.92 105.92 0 0 1-75.968 101.312 85.568 85.568 0 0 1 26.56 59.744h58.88z m-268 10.656a69.76 69.76 0 0 0-69.888 69.568 69.76 69.76 0 0 0 69.888 69.568 69.76 69.76 0 0 0 69.92-69.568c0-1.312-0.128-2.624-0.192-3.904a86.048 86.048 0 0 1-32.544-54.944 69.696 69.696 0 0 0-37.184-10.72z m62.784-70.4a105.952 105.952 0 0 1-75.968-101.312v-21.792a421.44 421.44 0 0 0-100.8 18.848l-5.024 1.568-0.16 1.12v72.224a89.408 89.408 0 0 0 89.504 89.088h59.328c2.24 0 4.384-0.192 6.56-0.32 0.736-23.328 10.752-44.32 26.56-59.424z"  horiz-adv-x="1024" />

    
    <glyph glyph-name="home_organ_icon1" unicode="&#58906;" d="M451.730286 287.451429c-151.942095 0-275.748571 122.587429-275.748572 272.969142 0 150.430476 123.806476 272.969143 275.748572 272.969143s275.69981-122.538667 275.699809-272.969143c0-150.381714-123.757714-272.920381-275.699809-272.920381z m0 476.257523c-113.225143 0-205.336381-91.184762-205.336381-203.288381 0-112.054857 92.111238-203.239619 205.287619-203.239619 113.273905 0 205.385143 91.184762 205.385143 203.239619 0 112.103619-92.16 203.288381-205.336381 203.288381zM903.460571-112.054857h-35.206095c-295.107048 1.755429-414.768762 0-415.939047 0H0v34.864762c0 237.470476 190.073905 410.575238 451.730286 410.575238s451.730286-172.470857 451.730285-410.575238v-34.864762zM72.167619-42.325333h379.562667c0.585143 0 110.299429 1.706667 379.562666 0-17.603048 178.809905-171.885714 305.444571-379.562666 305.444571-207.725714 0.585143-361.959619-126.049524-379.562667-305.493333z m697.539048 404.138666L728.600381 418.133333a226.840381 226.840381 0 0 1 95.085714 184.124953c0 110.884571-83.334095 206.750476-193.584762 222.98819l10.532572 69.095619c144.871619-21.455238 253.415619-146.919619 253.415619-292.083809 0-95.232-46.32381-184.661333-124.342857-240.396191zM1054.232381-28.42819l-66.901333 22.089142a270.140952 270.140952 0 0 1 14.09219 86.503619c0 148.675048-122.63619 270.043429-272.822857 270.043429V420.473905c189.488762 0 343.235048-152.137143 343.235048-339.724191a330.118095 330.118095 0 0 0-17.603048-109.177904zM1054.232381-27.843048h-76.848762l10.532571 23.210667h66.316191v-23.210667zM640.633905 825.246476h-10.581334V894.976l10.581334-0.633905V825.295238z"  horiz-adv-x="1072" />

    
    <glyph glyph-name="home_working_icon1" unicode="&#58907;" d="M1047.6544 816.4864v-656.5888c0-0.1024-969.984-0.0512-969.984-0.0512L77.6192 816.4352c0 0.1024 970.0352 0.0512 970.0352 0.0512zM0 159.8976c0-43.5712 34.816-79.104 77.6704-79.104h969.984c42.9568 0 77.6704 35.4304 77.6704 79.104V816.4352c0 43.5712-34.816 79.104-77.6704 79.104H77.6704C34.6624 895.488 0 860.16 0 816.4352v-656.5376z m923.904-263.936a39.168 39.168 0 0 1 38.8096 39.5264v1.8432a39.168 39.168 0 0 1-38.8096 39.5264H201.3696a39.168 39.168 0 0 1-38.8096-39.5264v-1.8432c0-21.8112 17.408-39.5264 38.8096-39.5264h722.5344z m-400.9472 79.9744h77.6192v104.8576h-75.8272l-1.792-104.8576zM281.6 691.2m40.96 0l481.28 0q40.96 0 40.96-40.96l0 0q0-40.96-40.96-40.96l-481.28 0q-40.96 0-40.96 40.96l0 0q0 40.96 40.96 40.96ZM281.6 527.36m40.96 0l481.28 0q40.96 0 40.96-40.96l0 0q0-40.96-40.96-40.96l-481.28 0q-40.96 0-40.96 40.96l0 0q0 40.96 40.96 40.96ZM281.6 363.52m40.96 0l481.28 0q40.96 0 40.96-40.96l0 0q0-40.96-40.96-40.96l-481.28 0q-40.96 0-40.96 40.96l0 0q0 40.96 40.96 40.96Z"  horiz-adv-x="1126" />

    
    <glyph glyph-name="theme_icon1" unicode="&#58908;" d="M831.212464-88.395145H238.741628c-49.083321 0-88.999675 38.44786-88.999675 85.706687V490.013743l-40.494852-24.919909c-8.588469-5.695979-20.469925-9.166967-32.484881-9.166967-28.924894 0-52.06481 18.511932-56.292295 45.033836l-4.138485 25.053408C9.478465 566.731463 0.089 622.445259 0 656.977133c-0.089 34.175875 30.348889 67.105755 49.572819 79.877208L281.505972 889.577783c9.122467 5.829479 17.221437 5.829479 25.720906 5.829479l52.865807-0.266999 19.757928 0.0445c9.344966 1.201496 17.488436-3.292988 23.762913-9.300466 6.318977-6.051978 9.923464-14.239948 9.923464-22.828417 0.222499-63.812767 52.865807-113.786084 119.882562-113.786084 67.061255 0 119.749063 49.973317 119.927062 113.786084 0 8.588469 3.559987 16.776439 9.878964 22.828417 6.318977 6.051978 14.506947 10.85796 23.807413 9.344966l19.846927-0.089 52.954807 0.266999c8.766468 0 16.998938 0 25.898905-5.918478l237.273134-152.500943c31.238886-21.537921 44.499837-46.190831 43.921339-80.544706-0.800997-7.831971-13.79495-117.301572-20.558925-155.838431-4.405484-25.053408-29.458892-43.92134-58.294787-43.921339-11.480958 0-22.205419 3.114989-31.105386 8.988967l-36.712366 22.561417v-490.922207c0-47.258827-39.960854-85.706687-89.044175-85.706687zM183.161331 581.14941c5.51798 0 11.03596-1.334995 16.019942-3.960486a32.039883 32.039883 0 0 0 17.443936-28.257396v-551.619986c0-11.747957 9.923464-21.270922 22.116419-21.270922h592.470836a21.715921 21.715921 0 0 1 22.116419 21.270922V547.062534c0 11.747957 6.674976 22.605917 17.354937 28.257397a34.709873 34.709873 0 0 0 34.086875-1.112496l77.963716-47.926325c6.897475 45.478834 17.354937 133.321513 17.488436 134.30051-0.0445 8.23247-1.334995 13.79495-15.307944 23.406914L756.274738 830.971498l-10.90246-0.0445-28.212897-0.2225c-16.153441-82.814198-92.470662-145.825967-183.739829-145.825967-91.224667 0-167.497388 63.01177-183.695329 145.825967l-28.034898 0.2225-10.590961 0.0445-223.611684-147.205463c-8.454969-5.60698-20.202926-20.825924-20.558924-26.655402 0.1335-29.325393 8.988967-82.1467 15.485943-120.772559l1.690994-10.234963 80.989704 50.017817a34.264875 34.264875 0 0 0 18.066934 5.072982z"  horiz-adv-x="1067" />

    
    <glyph glyph-name="home_visitor_icon1" unicode="&#58909;" d="M512 384m-512 0a512 512 0 1 1 1024 0 512 512 0 1 1-1024 0ZM559.36 508.16a69.76 69.76 0 0 0 69.824 68.48 69.76 69.76 0 0 0 69.92-69.568 69.76 69.76 0 0 0-99.456-62.976 86.176 86.176 0 0 1-40.32 64.032z m-45.824-148.416a69.76 69.76 0 0 0-69.92 69.568c0 38.432 31.296 69.6 69.92 69.6a69.76 69.76 0 0 0 69.92-69.6 69.76 69.76 0 0 0-69.92-69.568z m29.664-4.736a89.376 89.376 0 0 0 89.472-89.12v-71.872l-5.152-2.688c-2.368-1.184-40.48-19.84-106.272-19.84-33.696 0-74.624 4.864-121.728 19.52l-5.184 1.568v73.312a89.408 89.408 0 0 0 89.536 89.12h59.328z m115.648 71.84a89.408 89.408 0 0 0 89.504-89.088v-72.256h-0.48l-4.672-2.336c-2.24-1.12-35.712-17.504-93.824-19.616v22.24a105.92 105.92 0 0 1-75.968 101.312 85.568 85.568 0 0 1 26.56 59.744h58.88z m-268 10.656a69.76 69.76 0 0 0-69.888 69.568 69.76 69.76 0 0 0 69.888 69.568 69.76 69.76 0 0 0 69.92-69.568c0-1.312-0.128-2.624-0.192-3.904a86.048 86.048 0 0 1-32.544-54.944 69.696 69.696 0 0 0-37.184-10.72z m62.784-70.4a105.952 105.952 0 0 1-75.968-101.312v-21.792a421.44 421.44 0 0 0-100.8 18.848l-5.024 1.568-0.16 1.12v72.224a89.408 89.408 0 0 0 89.504 89.088h59.328c2.24 0 4.384-0.192 6.56-0.32 0.736-23.328 10.752-44.32 26.56-59.424z"  horiz-adv-x="1024" />

    
    <glyph glyph-name="up_icon1" unicode="&#58911;" d="M523.533474 857.519158a485.052632 485.052632 0 1 0 0-970.105263 485.052632 485.052632 0 0 0 0 970.105263z m162.007579-355.705263v-221.830737a23.013053 23.013053 0 0 1 45.918315 0V557.271579a23.013053 23.013053 0 0 1-23.013052 23.066947h-0.431158a20.48 20.48 0 0 1-0.377263 0l-274.593684-0.485052a23.013053 23.013053 0 0 1-22.905264-23.066948c0-12.773053 10.347789-23.066947 23.013053-23.066947l219.621053 0.377263-329.943579-329.674105c-21.665684-21.665684 10.671158-54.433684 32.336842-32.714105l330.374737 330.105263z"  horiz-adv-x="1024" />

    
    <glyph glyph-name="home_set_icon1" unicode="&#58912;" d="M691.346286-99.279238c-19.846095 0-39.107048 7.801905-53.004191 21.552762-40.569905 40.082286-79.481905 62.902857-106.544762 62.902857-35.888762 0-79.481905-36.961524-100.449523-54.710857l-0.585143-0.487619-2.145524-1.755429-2.486857-2.145524-0.877715-0.585142-0.682666-0.828953c-11.361524-13.019429-31.012571-20.870095-52.419048-20.870095-9.45981 0-18.919619 2.974476-27.891809 6.046476l-0.24381 0.146286c-0.24381 0.097524-0.633905 0.195048-0.975238 0.487619l-127.951238 69.875809-1.072762 0.585143c-27.989333 18.724571-40.228571 55.198476-27.89181 83.18781l0.097524 0.243809c0.146286 0.341333 10.922667 27.111619 10.922667 48.079238 0 70.997333-58.514286 128.682667-130.486857 128.682667h-2.974476c-25.014857 0-45.494857 20.72381-52.077715 52.857905l-0.097523 0.341333v0.24381l-0.146286 0.731428c-0.097524 0.926476-0.585143 3.510857-0.975238 6.144v0.24381C7.314286 319.73181 0 361.862095 0 396.336762c0 34.474667 7.314286 76.653714 10.435048 94.695619l0.682666 4.388571 0.487619 2.681905v0.24381l0.146286 0.390095c6.192762 33.158095 25.6 52.955429 52.028952 52.955428h5.753905c71.92381 0 130.486857 57.685333 130.486857 128.682667 0 22.966857-10.532571 46.665143-12.921904 51.980191l-0.731429 1.657904c-13.06819 28.91581-3.120762 65.194667 22.28419 80.944762l0.341334 0.24381L346.648381 888.783238l0.828952 0.341333 1.072762 0.341334c7.168 2.389333 17.017905 5.461333 26.331429 5.461333 19.894857 0 39.15581-7.801905 53.00419-21.552762 23.405714-22.966857 70.265905-57.246476 104.057905-57.246476 33.353143 0 80.457143 34.279619 104.009143 57.246476a80.505905 80.505905 0 0 0 53.150476 21.552762c9.411048 0 18.870857-2.925714 27.843048-6.046476l0.390095-0.097524h0.097524l0.243809-0.243809 131.559619-73.240381c32.670476-17.65181 47.152762-51.785143 34.328381-81.042286l-0.097524-0.24381c-0.146286-0.24381-10.873905-27.014095-10.873904-48.079238 0-70.997333 58.514286-128.682667 130.438095-128.682666h5.753905c25.014857 0 45.494857-20.72381 52.077714-52.857905l0.097524-0.341333v-0.24381l0.146286-0.682667c0.097524-1.072762 0.585143-3.705905 1.072761-6.436571 3.120762-17.993143 10.386286-60.318476 10.386286-94.646857 0-36.864-7.509333-79.286857-10.386286-95.280762l-0.146285-0.341333c-0.487619-2.389333-0.828952-4.388571-0.975238-5.558858l-0.097524-0.731428v-0.487619c-6.192762-33.158095-25.6-52.955429-52.077714-52.955429h-5.705143c-71.972571 0-130.389333-57.539048-130.486857-128.438857v-0.097524l-0.097524-0.828952c-1.950476-19.553524 5.12-39.594667 9.654857-50.127238v-2.243048l1.80419-1.80419c12.092952-28.525714 2.048-63.975619-22.625523-79.481905l-0.975239-0.731429-134.144-73.094095-0.243809-0.097524c-11.50781-5.607619-21.308952-9.020952-34.718476-9.020952z m-165.400381 156.281905c34.816 0 73.240381-14.433524 113.956571-42.764191l0.487619-0.341333 0.487619-0.24381c15.993905-8.777143 31.305143-19.943619 44.27581-32.231619l5.705143-5.461333 117.51619 63.24419-3.072 8.679619a201.142857 201.142857 0 0 0-12.092952 64.463239c0 52.126476 19.992381 101.668571 56.368762 139.459047a206.262857 206.262857 0 0 0 125.318095 62.415238l8.289524 0.975238 1.170285 8.143238c2.145524 14.140952 5.753905 45.982476 5.753905 75.483429 0 22.040381-3.85219 50.468571-6.241524 69.339429l-0.195047 1.414095c-0.24381 1.511619-0.390095 3.072-0.487619 4.144762l-0.731429 8.777143-8.874667 1.072762a206.116571 206.116571 0 0 0-124.001523 61.244952 201.48419 201.48419 0 0 0-56.466286 140.775619c0 18.822095 4.193524 40.472381 12.531809 64.560762l3.023239 8.533333-116.931048 64.463238-5.851429-5.217524a309.638095 309.638095 0 0 0-39.497142-30.47619l-0.146286-0.097524c-38.326857-26.087619-76.995048-40.521143-109.031619-40.521143-33.401905 0-67.876571 12.434286-111.957334 40.374857l-1.511619 0.975239a244.443429 244.443429 0 0 0-38.229333 31.841523l-5.851429 5.948953-122.39238-67.047619 3.072-8.679619c5.607619-15.60381 12.190476-39.545905 12.190476-64.560762 0-52.175238-19.992381-101.668571-56.368762-139.459048a207.140571 207.140571 0 0 0-124.099048-62.317714l-8.143238-0.975238-1.316571-7.899429c-0.24381-1.316571-0.390095-2.633143-0.487619-3.803428v-0.146286c-0.146286-0.682667-0.146286-1.414095-0.24381-2.243048l-0.097524-1.170285c-2.438095-18.578286-6.144-46.665143-6.144-68.364191 0-22.040381 3.85219-50.468571 6.241524-69.339428l0.24381-1.26781c0.24381-1.657905 0.487619-3.218286 0.487619-4.291048l0.682666-8.777142 8.874667-1.024a206.116571 206.116571 0 0 0 124.001524-61.293715 201.48419 201.48419 0 0 0 56.515047-140.726857c0-25.014857-6.582857-49.200762-12.092952-64.950857l-3.023238-8.43581 111.957333-62.902857 5.851429 5.948953c12.190476 12.190476 25.112381 22.869333 38.278095 31.50019l0.24381 0.146286c40.813714 28.525714 78.506667 43.105524 112.054857 43.105524zM531.69981 212.845714c-49.93219 0-97.328762 19.504762-133.461334 54.954667a183.637333 183.637333 0 0 0-55.686095 131.413333c0 49.249524 19.748571 95.963429 55.686095 131.510857A188.854857 188.854857 0 0 0 531.504762 585.581714c49.93219 0 97.328762-19.553524 133.461333-55.003428a183.637333 183.637333 0 0 0 55.686095-131.364572 183.491048 183.491048 0 0 0-54.710857-131.315809 187.733333 187.733333 0 0 0-134.290285-55.100953z m0 297.935238c-62.610286 0-113.615238-50.224762-113.615239-111.957333 0-61.732571 51.004952-111.957333 113.615239-111.957333 62.561524 0 113.615238 50.224762 113.615238 111.957333-0.390095 62.805333-50.322286 111.957333-113.615238 111.957333z"  horiz-adv-x="1072" />

    
    <glyph glyph-name="home_sousuo_icon" unicode="&#58884;" d="M968.655238 58.953143l-0.438857 0.438857-163.644952 163.498667a378.489905 378.489905 0 1 1-39.009524-39.009524l160.572952-160.377905h-0.048762l4.096-4.047238a27.550476 27.550476 0 0 1 38.473143 39.497143zM193.828571 470.308571a324.266667 324.266667 0 1 0 648.582096 0 324.266667 324.266667 0 0 0-648.582096 0z"  horiz-adv-x="1024" />

    
    <glyph glyph-name="home_organ_icon" unicode="&#58891;" d="M451.730286 287.451429c-151.942095 0-275.748571 122.587429-275.748572 272.969142 0 150.430476 123.806476 272.969143 275.748572 272.969143s275.69981-122.538667 275.699809-272.969143c0-150.381714-123.757714-272.920381-275.699809-272.920381z m0 476.257523c-113.225143 0-205.336381-91.184762-205.336381-203.288381 0-112.054857 92.111238-203.239619 205.287619-203.239619 113.273905 0 205.385143 91.184762 205.385143 203.239619 0 112.103619-92.16 203.288381-205.336381 203.288381zM903.460571-112.054857h-35.206095c-295.107048 1.755429-414.768762 0-415.939047 0H0v34.864762c0 237.470476 190.073905 410.575238 451.730286 410.575238s451.730286-172.470857 451.730285-410.575238v-34.864762zM72.167619-42.325333h379.562667c0.585143 0 110.299429 1.706667 379.562666 0-17.603048 178.809905-171.885714 305.444571-379.562666 305.444571-207.725714 0.585143-361.959619-126.049524-379.562667-305.493333z m697.539048 404.138666L728.600381 418.133333a226.840381 226.840381 0 0 1 95.085714 184.124953c0 110.884571-83.334095 206.750476-193.584762 222.98819l10.532572 69.095619c144.871619-21.455238 253.415619-146.919619 253.415619-292.083809 0-95.232-46.32381-184.661333-124.342857-240.396191zM1054.232381-28.42819l-66.901333 22.089142a270.140952 270.140952 0 0 1 14.09219 86.503619c0 148.675048-122.63619 270.043429-272.822857 270.043429V420.473905c189.488762 0 343.235048-152.137143 343.235048-339.724191a330.118095 330.118095 0 0 0-17.603048-109.177904zM1054.232381-27.843048h-76.848762l10.532571 23.210667h66.316191v-23.210667zM640.633905 825.246476h-10.581334V894.976l10.581334-0.633905V825.295238z"  horiz-adv-x="1072" />

    
    <glyph glyph-name="home_working_icon" unicode="&#58894;" d="M1047.6544 816.4864v-656.5888c0-0.1024-969.984-0.0512-969.984-0.0512L77.6192 816.4352c0 0.1024 970.0352 0.0512 970.0352 0.0512zM0 159.8976c0-43.5712 34.816-79.104 77.6704-79.104h969.984c42.9568 0 77.6704 35.4304 77.6704 79.104V816.4352c0 43.5712-34.816 79.104-77.6704 79.104H77.6704C34.6624 895.488 0 860.16 0 816.4352v-656.5376z m923.904-263.936a39.168 39.168 0 0 1 38.8096 39.5264v1.8432a39.168 39.168 0 0 1-38.8096 39.5264H201.3696a39.168 39.168 0 0 1-38.8096-39.5264v-1.8432c0-21.8112 17.408-39.5264 38.8096-39.5264h722.5344z m-400.9472 79.9744h77.6192v104.8576h-75.8272l-1.792-104.8576zM281.6 691.2m40.96 0l481.28 0q40.96 0 40.96-40.96l0 0q0-40.96-40.96-40.96l-481.28 0q-40.96 0-40.96 40.96l0 0q0 40.96 40.96 40.96ZM281.6 527.36m40.96 0l481.28 0q40.96 0 40.96-40.96l0 0q0-40.96-40.96-40.96l-481.28 0q-40.96 0-40.96 40.96l0 0q0 40.96 40.96 40.96ZM281.6 363.52m40.96 0l481.28 0q40.96 0 40.96-40.96l0 0q0-40.96-40.96-40.96l-481.28 0q-40.96 0-40.96 40.96l0 0q0 40.96 40.96 40.96Z"  horiz-adv-x="1126" />

    


  </font>
</defs>
</svg>
